<svg id="Capa_1" data-name="Capa 1" xmlns="http://www.w3.org/2000/svg" viewBox="0 0 796 752.76"><defs><style>.cls-1{fill:#7b0295;}.cls-2{fill:#fff;}</style></defs><title>icono</title><circle class="cls-1" cx="405.43" cy="380.01" r="359.32"/><path class="cls-2" d="M259.18,647.57l292.49-92.3V503s-139-58.95-292.49,0Z"/><path class="cls-2" d="M294.4,459.25l4.45-166.08s17-11.86,33.36-13.34v168.3S305.52,451.84,294.4,459.25Z"/><path class="cls-2" d="M537.58,237.57,409.24,182,275.12,236.83s-20.76,10.38-12.6,19.52,23.72-4,23.72-4L302.56,245H409.24l102.4.74L522,252.4s11.86,8.89,19.27,0S537.58,237.57,537.58,237.57Z"/><path class="cls-2" d="M409.24,41.09l4.53,89.71s17.79,20.76,13.34,29.66-17.87-8.16-17.87-8.16S396,162.64,389.3,163s7.32-30.74,12.93-31.49Z"/><path class="cls-2" d="M353,274.64s33.37-7.42,43.75-6.67V443.68s-44.49,3-43.75,0S353,274.64,353,274.64Z"/><path class="cls-2" d="M516.83,459.25l-4.45-166.08S495.32,281.31,479,279.83v168.3S505.7,451.84,516.83,459.25Z"/><path class="cls-2" d="M458.25,274.64s-33.36-7.42-43.74-6.67V443.68s44.48,3,43.74,0S458.25,274.64,458.25,274.64Z"/></svg>