<svg id="Capa_1" data-name="Capa 1" xmlns="http://www.w3.org/2000/svg" viewBox="0 0 304.93 304.93"><defs><style>.cls-1{fill:#83aedd;}.cls-2{fill:#dcdcdd;}.cls-3{fill:#666b78;}.cls-4{fill:#f0f2f6;}.cls-5{fill:#454953;}</style></defs><title>iconos</title><circle class="cls-1" cx="152.47" cy="152.47" r="152.47"/><rect class="cls-2" x="131.15" y="231.44" width="42.84" height="48.52"/><path class="cls-3" d="M152.47,9.74h0A55.28,55.28,0,0,0,97.24,65v87.49a55.28,55.28,0,0,0,55.23,55.23h0a55.28,55.28,0,0,0,55.22-55.23V65A55.28,55.28,0,0,0,152.47,9.74Z"/><path class="cls-4" d="M152.47,238.54a84.21,84.21,0,0,1-84-84V97.85a7.11,7.11,0,0,1,14.21,0V154.5a69.84,69.84,0,0,0,139.67,0V97.85a7.11,7.11,0,0,1,14.22,0V154.5A84.23,84.23,0,0,1,152.47,238.54Z"/><rect class="cls-4" x="96.84" y="272.65" width="111.25" height="14.21"/><path class="cls-5" d="M128.51,71.06H97.24V88.51h31.27a8.73,8.73,0,1,0,0-17.45Z"/><path class="cls-5" d="M128.51,100.09H97.24v17.46h31.27a8.73,8.73,0,1,0,0-17.46Z"/><path class="cls-5" d="M128.51,129.12H97.24v17.46h31.27a8.73,8.73,0,1,0,0-17.46Z"/><path class="cls-5" d="M176.42,146.58h31.27V129.12H176.42a8.67,8.67,0,0,0-8.73,8.73A8.8,8.8,0,0,0,176.42,146.58Z"/><path class="cls-5" d="M176.42,117.55h31.27V100.09H176.42a8.73,8.73,0,1,0,0,17.46Z"/><path class="cls-5" d="M176.42,88.52h31.27V71.06H176.42a8.73,8.73,0,1,0,0,17.46Z"/></svg>