<svg id="Capa_1" data-name="Capa 1" xmlns="http://www.w3.org/2000/svg" viewBox="0 0 315.1 315.1"><defs><style>.cls-1{fill:#72b5fb;}.cls-2{fill:#dce8fa;}.cls-3{fill:#8dcbfc;}.cls-4{fill:#76c27d;}.cls-5{fill:#62ac8d;}.cls-6{fill:#54918e;}.cls-7{fill:#db3a46;}.cls-8{fill:#9b112e;}.cls-9{fill:#fff;}.cls-10{fill:#82bfd5;}.cls-11{fill:#62a2a2;}</style></defs><title>iconos</title><circle class="cls-1" cx="157.55" cy="164.32" r="150.78"/><path class="cls-2" d="M295.2,77.24h-70a110.71,110.71,0,0,1,16.41,15.39H295.2c4.7,0,8.55-3.46,8.55-7.69S299.9,77.24,295.2,77.24Z"/><path class="cls-3" d="M271.61,107.72h-19a109,109,0,0,1,7.72,15.39h11.31c4.71,0,8.55-3.47,8.55-7.7S276.32,107.72,271.61,107.72Z"/><path class="cls-3" d="M261.05,240.63h-5.93a13.63,13.63,0,0,1-18.69.9A110.73,110.73,0,0,1,218.63,256h42.42c4.7,0,8.55-3.46,8.55-7.69S265.75,240.63,261.05,240.63Z"/><path class="cls-3" d="M96.87,74.18H35.31c-4.8,0-8.72,3.53-8.72,7.84s3.92,7.85,8.72,7.85H51.23c4.79,0,8.71,3.53,8.71,7.85s-3.92,7.84-8.71,7.84H8.72c-4.8,0-8.72,3.53-8.72,7.85s3.92,7.85,8.72,7.85H58.29A109.71,109.71,0,0,1,96.87,74.18Z"/><path class="cls-2" d="M65.22,220.88H41.72c-4.7,0-8.54,3.46-8.54,7.68s3.84,7.68,8.54,7.68H57.29c4.7,0,8.54,3.46,8.54,7.68S62,251.6,57.29,251.6H15.69c-4.69,0-8.53,3.46-8.53,7.68S11,267,15.69,267H120.91A109.77,109.77,0,0,1,65.22,220.88Z"/><path class="cls-4" d="M182.78,57.51l-23.1,40.17a2.46,2.46,0,0,1-4.26,0L132.64,58.07a109.44,109.44,0,1,0,103.8,183.47A13.65,13.65,0,0,1,253.14,220,109.47,109.47,0,0,0,182.78,57.51Z"/><path class="cls-5" d="M69,164.32a109.44,109.44,0,0,1,66.8-100.8l-3.14-5.45a109.44,109.44,0,0,0,26.27,215.68c3.29,0,6.54-.16,9.75-.44A109.44,109.44,0,0,1,69,164.32Z"/><path class="cls-6" d="M185.18,53.34,177.4,66.86c6.08,5,11.74,12.47,16.66,22.17q2.53,5,4.69,10.54a13.63,13.63,0,0,1,7.78-2.44,11.85,11.85,0,0,1,1.19.06,127.55,127.55,0,0,0-5.43-12.34,84.16,84.16,0,0,0-15-21.44,105,105,0,0,1,50.62,32.11,141.06,141.06,0,0,1-20.69,6.78,13.61,13.61,0,0,1,3,8.5c0,.08,0,.17,0,.25a145.31,145.31,0,0,0,23.67-8,104.14,104.14,0,0,1,19.76,56.7H219a208.64,208.64,0,0,0-4.22-38,13.59,13.59,0,0,1-8.26,2.79l-.59,0a198.61,198.61,0,0,1,3.83,35.26H162.16V118.11A276.06,276.06,0,0,0,193.89,116a13.52,13.52,0,0,1-1-5.18,13.33,13.33,0,0,1,.62-4.07,267.72,267.72,0,0,1-31.32,2.16V93.36l-2.49,4.32a2.46,2.46,0,0,1-4.26,0l-2.49-4.32v15.48a258.55,258.55,0,0,1-36.06-3.21A124.41,124.41,0,0,1,123.76,89c4.43-8.73,9.45-15.65,14.84-20.6l-8.34-14.51a114,114,0,1,0,110.22,190,13.71,13.71,0,0,1-7-6,104.85,104.85,0,0,1-46.15,27.3,83.81,83.81,0,0,0,15-21.44,133.87,133.87,0,0,0,7.81-19.08,163.9,163.9,0,0,1,21.55,6,13.62,13.62,0,0,1,3.42-8.57,171.14,171.14,0,0,0-22.37-6.27,201.74,201.74,0,0,0,6.31-46.9h44.6a104,104,0,0,1-14.7,49,13.75,13.75,0,0,1,7.57,5.33,114,114,0,0,0-71.3-170ZM130.53,63.41a84,84,0,0,0-15,21.44,133.53,133.53,0,0,0-7.81,19.09,150.73,150.73,0,0,1-27.81-8.42A105,105,0,0,1,130.53,63.41ZM79.9,233.12a151.08,151.08,0,0,1,27.82-8.42,133.87,133.87,0,0,0,7.81,19.08,84,84,0,0,0,15,21.44A105.09,105.09,0,0,1,79.9,233.12Zm73,35.27c-10.81-2.7-21-12.68-29.17-28.78A124.56,124.56,0,0,1,116.87,223a258.58,258.58,0,0,1,36.06-3.2Zm0-108.69H115.78a13.63,13.63,0,0,1,0,9.23h37.18v41.64a265.43,265.43,0,0,0-38.73,3.54,187.21,187.21,0,0,1-5.84-37.31,13.57,13.57,0,0,1-5.45,1.14,13.77,13.77,0,0,1-3.76-.53,197.09,197.09,0,0,0,6,38.42A156.75,156.75,0,0,0,74,225.64,104.25,104.25,0,0,1,54.2,168.93H90.07a13.63,13.63,0,0,1,0-9.23H54.2A104.28,104.28,0,0,1,74,103a155.46,155.46,0,0,0,31.16,9.81,197.15,197.15,0,0,0-6,38.34,13.6,13.6,0,0,1,9.21.61,187.15,187.15,0,0,1,5.83-37.22,266.82,266.82,0,0,0,38.73,3.54V159.7Zm41.13,79.91c-8.85,17.44-20.07,27.7-31.9,29.29V219.76A260.59,260.59,0,0,1,200.94,223,123.23,123.23,0,0,1,194.06,239.61Zm9.56-25.5a267.65,267.65,0,0,0-41.46-3.59V168.93h47.61A191.65,191.65,0,0,1,203.62,214.11Z"/><circle class="cls-7" cx="102.91" cy="164.28" r="14.28"/><circle class="cls-7" cx="206.53" cy="110.8" r="14.28"/><circle class="cls-7" cx="245.3" cy="231.15" r="14.28"/><path class="cls-8" d="M97.15,164.28a14.29,14.29,0,0,1,10-13.64,14.28,14.28,0,1,0,0,27.27A14.29,14.29,0,0,1,97.15,164.28Z"/><path class="cls-8" d="M200.77,110.79a14.29,14.29,0,0,1,10-13.63,14.28,14.28,0,1,0-4.26,27.91,14,14,0,0,0,4.26-.65A14.27,14.27,0,0,1,200.77,110.79Z"/><path class="cls-8" d="M239.54,231.15a14.28,14.28,0,0,1,10-13.63,14.28,14.28,0,1,0,0,27.26A14.28,14.28,0,0,1,239.54,231.15Z"/><path class="cls-7" d="M157.55,99.53A3.08,3.08,0,0,1,154.88,98L128.59,52.26a34.16,34.16,0,1,1,57.92,0L160.22,98A3.08,3.08,0,0,1,157.55,99.53Z"/><path class="cls-8" d="M137.72,49.28A34.15,34.15,0,0,1,151.64.52a34.14,34.14,0,0,0-23,51.74L154.88,98a3.07,3.07,0,0,0,5.34,0L163,93.19Z"/><circle class="cls-9" cx="157.55" cy="34.16" r="20.51"/><circle class="cls-10" cx="157.55" cy="34.16" r="12.45"/><path class="cls-11" d="M152.39,34.16a12.46,12.46,0,0,1,8.8-11.91,12.46,12.46,0,1,0,0,23.81A12.46,12.46,0,0,1,152.39,34.16Z"/><path class="cls-2" d="M307.6,157.26H198.47c-4.12,0-7.5,3-7.5,6.75s3.38,6.75,7.5,6.75h15.38c4.12,0,7.5,3,7.5,6.75s-3.38,6.75-7.5,6.75H154.23c-4.13,0-7.5,3-7.5,6.75s3.37,6.75,7.5,6.75H284.72c4.13,0,7.51-3,7.51-6.75s-3.38-6.75-7.51-6.75H271c-4.12,0-7.5-3-7.5-6.75s3.38-6.75,7.5-6.75H307.6c4.12,0,7.5-3,7.5-6.75S311.72,157.26,307.6,157.26Z"/></svg>