<svg id="Capa_1" data-name="Capa 1" xmlns="http://www.w3.org/2000/svg" viewBox="0 0 336.56 336.56"><defs><style>.cls-1,.cls-2{fill:#db3a46;}.cls-1{opacity:0.59;}.cls-3{fill:#fff;}</style></defs><title>iconos</title><circle class="cls-1" cx="168.28" cy="168.28" r="168.28"/><circle class="cls-2" cx="167.67" cy="168.89" r="150.46"/><circle class="cls-3" cx="167.67" cy="149.76" r="24.92"/><path class="cls-3" d="M167.67,184.05c-14.7,0-26.37,7.68-24.76,16.68l6.75,72.37c0,6,8.07,10.88,18,10.88s18-4.87,18-10.88l6.75-72.37C194,191.71,182.35,184.05,167.67,184.05Z"/><path class="cls-3" d="M167.67,53.79A103.35,103.35,0,0,0,134.6,255.06L133.38,242A91.52,91.52,0,1,1,202,242l-1.22,13.07A103.35,103.35,0,0,0,167.67,53.79Z"/><path class="cls-3" d="M167.67,87.34A69.8,69.8,0,0,0,131,216.53l-1.31-14.12c-.09-.55-.12-1.1-.16-1.65a58,58,0,1,1,76.28,0c0,.55-.07,1.09-.15,1.64l-1.32,14.13A69.8,69.8,0,0,0,167.67,87.34Z"/></svg>