<svg id="Capa_1" data-name="Capa 1" xmlns="http://www.w3.org/2000/svg" viewBox="0 0 303.15 303.15"><defs><style>.cls-1{fill:#6ab6ce;}.cls-2{fill:#ecbe31;}.cls-3{fill:#d69724;}.cls-4{fill:#fff;}.cls-5{fill:#3f5970;}.cls-6{fill:#dc6129;}.cls-7{fill:#243443;}</style></defs><title>iconos</title><circle class="cls-1" cx="151.57" cy="151.57" r="151.57"/><path class="cls-2" d="M49.77,157.25v52a13.38,13.38,0,0,0,13.39,13.38H74.39V143.87H63.16A13.38,13.38,0,0,0,49.77,157.25Z"/><path class="cls-2" d="M240,143.87H228.75v78.79H240a13.39,13.39,0,0,0,13.39-13.38v-52A13.39,13.39,0,0,0,240,143.87Z"/><path class="cls-3" d="M228.75,184.22v38.44H240a13.39,13.39,0,0,0,13.39-13.38V184.22Z"/><path class="cls-3" d="M49.77,184.22v25.05a13.38,13.38,0,0,0,13.39,13.38H74.39V184.22Z"/><path class="cls-4" d="M224.15,137.52h-4.46a68.11,68.11,0,1,0-136.22,0H79a72.57,72.57,0,0,1,145.14,0Z"/><path class="cls-5" d="M195.56,89.32a6.65,6.65,0,0,1-4.19-1.48,63.68,63.68,0,0,0-79.6,0,6.69,6.69,0,0,1-8.37-10.43,77,77,0,0,1,96.35,0,6.69,6.69,0,0,1-4.19,11.91Z"/><path class="cls-5" d="M88.07,226a6.84,6.84,0,1,1-13.67,0V140.48a6.84,6.84,0,1,1,13.67,0Z"/><path class="cls-5" d="M215.08,226a6.84,6.84,0,1,0,13.67,0V140.48a6.84,6.84,0,1,0-13.67,0Z"/><path class="cls-6" d="M119.13,137.74v17.94a6.86,6.86,0,0,0-4.35-.32c-3.7.81-6.7,3.86-6.7,6.81s3,4.69,6.7,3.87,6.71-3.86,6.71-6.81v-22Z"/><path class="cls-6" d="M192.72,180.25v17.94a6.86,6.86,0,0,0-4.35-.32c-3.7.81-6.7,3.86-6.7,6.81s3,4.69,6.7,3.87,6.7-3.86,6.7-6.81v-22Z"/><path class="cls-7" d="M177.18,138.21l-34.46,7.57-4.48,1v34.16a13.15,13.15,0,0,0-8.28-.62c-7.05,1.55-12.76,7.36-12.76,13s5.72,8.92,12.76,7.37,12.76-7.36,12.76-13V153.11l34.46-7.58v26.84a13.08,13.08,0,0,0-8.28-.62c-7.05,1.55-12.76,7.35-12.76,13s5.72,8.92,12.76,7.37,12.76-7.36,12.76-13V137.22Z"/></svg>