<svg id="Capa_1" data-name="Capa 1" xmlns="http://www.w3.org/2000/svg" viewBox="0 0 302.21 302.21"><defs><style>.cls-1{fill:#7420bb;}.cls-2{fill:#db5b6e;}.cls-3{fill:#d54552;}.cls-4{fill:#eabf53;}.cls-5{fill:#88c2f9;}.cls-6{fill:#71abf5;}.cls-7{fill:#609ce6;}.cls-8{fill:#e08f9f;}</style></defs><title>iconos</title><circle class="cls-1" cx="151.1" cy="151.1" r="151.1"/><circle class="cls-1" cx="151.1" cy="151.1" r="151.1"/><path class="cls-2" d="M208.14,74.77h0a67.33,67.33,0,0,0-95,0c-2.2,1.89-3,3.86-5.46,3.86s-3.26-2-5.46-3.86A66.91,66.91,0,0,0,54.78,55.18a67.8,67.8,0,0,0-23.44,4.18A150.36,150.36,0,0,0,.63,161.94a67.7,67.7,0,0,0,6.67,7.79l26.93,26.93h0l60.59,60.58.05.05c.07.07.06.07,0,0a18.24,18.24,0,0,0,25.7,0h0l.05-.05,60.59-60.58h0l26.93-26.93a66.63,66.63,0,0,0,16.25-26.48h0A67.35,67.35,0,0,0,208.14,74.77Z"/><path class="cls-3" d="M125.72,239.36v0l0-.06L64.93,178.61v-.27l-26.8-26.8A66.23,66.23,0,0,1,22,125.19h0l0-.09A66.92,66.92,0,0,1,37.46,57.73c-2.06.55-4.1,1.18-6.11,1.92A149.64,149.64,0,0,0,.79,161.73a67.15,67.15,0,0,0,6.65,7.75l26.79,26.8v.46l60.59,60.59.06.05c.06.07.06.07,0,0a18.25,18.25,0,0,0,25.7,0h0l0-.05L133.92,244A18.17,18.17,0,0,1,125.72,239.36Z"/><path class="cls-4" d="M267.05,111.56H250.8a4.73,4.73,0,1,1-.09-9.45H267a4.73,4.73,0,1,1,.1,9.45Z"/><path class="cls-4" d="M238.58,78.54a4.68,4.68,0,0,1,1.72-6.39l14-8.08A4.67,4.67,0,1,1,259,72.16l-14,8.09A4.67,4.67,0,0,1,238.58,78.54Z"/><path class="cls-4" d="M218,58a4.68,4.68,0,0,1-1.71-6.39l8.09-14a4.67,4.67,0,1,1,8.09,4.68l-8.08,14A4.68,4.68,0,0,1,218,58Z"/><path class="cls-5" d="M179.44,191.26l103.88-34.09V123.59a2.34,2.34,0,0,0-3.07-2.22l-98.89,32.45a2.77,2.77,0,0,0-1.92,2.65Z"/><path class="cls-6" d="M202.46,147,181.36,154a2.77,2.77,0,0,0-1.92,2.65v34.46l23-7.56Z"/><path class="cls-6" d="M178.85,280.55V172.11a4.72,4.72,0,1,1,9.44-.09V280.65a4.72,4.72,0,1,1-9.44-.1Z"/><path class="cls-5" d="M273.88,245.08v-105a4.72,4.72,0,1,1,9.44-.09V245.18a4.72,4.72,0,1,1-9.44-.1Z"/><circle class="cls-6" cx="166.44" cy="280.11" r="22.09"/><circle class="cls-5" cx="260.98" cy="244.66" r="22.09"/><path class="cls-7" d="M166.44,280.12a22.09,22.09,0,0,1,0-22.09,22.09,22.09,0,1,0,19.12,33.13A22.09,22.09,0,0,1,166.44,280.12Z"/><path class="cls-6" d="M261,244.67a22.09,22.09,0,0,1,0-22.09,22.09,22.09,0,1,0,19.13,33.13A22.08,22.08,0,0,1,261,244.67Z"/><circle class="cls-8" cx="182.05" cy="92.04" r="13.61"/><circle class="cls-8" cx="158.78" cy="112.45" r="6.8"/></svg>