<svg id="Capa_1" data-name="Capa 1" xmlns="http://www.w3.org/2000/svg" xmlns:xlink="http://www.w3.org/1999/xlink" viewBox="0 0 1925.78 1139.23"><defs><style>.cls-1,.cls-2{opacity:0.2;}.cls-1{fill:url(#Degradado_sin_nombre_15);}.cls-2{fill:url(#Degradado_sin_nombre_15-2);}.cls-3,.cls-4,.cls-5,.cls-6{fill:none;stroke-linecap:round;stroke-linejoin:round;stroke-width:0.5px;}.cls-3{stroke:url(#Degradado_sin_nombre_19);}.cls-4{stroke:url(#Degradado_sin_nombre_26);}.cls-5{stroke:url(#Degradado_sin_nombre_21);}.cls-6{stroke:url(#Degradado_sin_nombre_28);}</style><linearGradient id="Degradado_sin_nombre_15" x1="895.79" y1="1254.75" x2="1039.03" y2="129.27" gradientUnits="userSpaceOnUse"><stop offset="0.23" stop-color="#8f8f8f"/><stop offset="1" stop-color="#faf9fb"/></linearGradient><linearGradient id="Degradado_sin_nombre_15-2" x1="1038.03" y1="1253.99" x2="870.07" y2="-65.71" xlink:href="#Degradado_sin_nombre_15"/><linearGradient id="Degradado_sin_nombre_19" x1="-0.25" y1="491.87" x2="1926.03" y2="491.87" gradientUnits="userSpaceOnUse"><stop offset="0" stop-color="#fff"/><stop offset="1" stop-color="#14114c" stop-opacity="0"/></linearGradient><linearGradient id="Degradado_sin_nombre_26" x1="44.29" y1="433.54" x2="1926.03" y2="433.54" gradientUnits="userSpaceOnUse"><stop offset="0" stop-color="#14114c" stop-opacity="0"/><stop offset="1" stop-color="#fff" stop-opacity="0.96"/></linearGradient><linearGradient id="Degradado_sin_nombre_21" x1="-0.25" y1="361.3" x2="1926.03" y2="361.3" gradientUnits="userSpaceOnUse"><stop offset="0" stop-color="#14114c" stop-opacity="0"/><stop offset="1" stop-color="#fff"/></linearGradient><linearGradient id="Degradado_sin_nombre_28" x1="-0.25" y1="427.25" x2="1930.65" y2="427.25" xlink:href="#Degradado_sin_nombre_19"/></defs><title>ondas</title><path class="cls-1" d="M1925.78,493c-45.93-58.07-114.22-114.62-215.18-146.73-268.45-85.4-428,77.26-613.87,124S853.62,401.16,564.52,317.8C299.12,241.27,45.6,303.54,0,315.83v823.4H1925.78Z"/><path class="cls-2" d="M1925.78,187.92c-75.11-23.22-350-96.06-641.34-4C947.25,290.58,875,449.2,658.22,389.39,459.46,334.55,271.28,137.85,0,189.75v949.48H1925.78Z"/><path id="_Trazado_" data-name="&lt;Trazado&gt;" class="cls-3" d="M0,483.33c92.63-71.22,360.84-234.51,674.19-35.21,338.18,223.18,652.24,261,1030.18,8.08,80.93-54.17,155.84-79.52,221.41-82.79"/><path id="_Trazado_2" data-name="&lt;Trazado&gt;" class="cls-4" d="M1925.78,246.53C1849.91,264,1769.25,301.45,1680.17,370c-293.74,226.1-396.05,331.76-916.95,178.17S44.54,563.25,44.54,563.25"/><path id="_Trazado_3" data-name="&lt;Trazado&gt;" class="cls-5" d="M0,459.55a574.69,574.69,0,0,1,150.86,10c170,34.2,344.29,165.93,673.73,178.73C1281.05,666.47,1609.67,37,1925.78,75.66"/><path id="_Trazado_4" data-name="&lt;Trazado&gt;" class="cls-6" d="M1930.4,262.86s-215.51-122.35-389.74,99.91S1111,678.49,822,595.07C537.16,512.83,418.07,276.6,0,387.35"/></svg>